<mxfile host="Electron" agent="Mozilla/5.0 (X11; Linux x86_64) AppleWebKit/537.36 (KHTML, like Gecko) draw.io/24.7.17 Chrome/128.0.6613.162 Electron/32.1.2 Safari/537.36" scale="1" border="0" version="24.7.17">
  <diagram name="Page-1" id="so2G5YLaejn2webT6s7b">
    <mxGraphModel dx="1434" dy="2094" grid="1" gridSize="10" guides="1" tooltips="1" connect="1" arrows="1" fold="1" page="1" pageScale="1" pageWidth="850" pageHeight="1100" math="0" shadow="0">
      <root>
        <mxCell id="0" />
        <mxCell id="1" parent="0" />
        <mxCell id="6v2r7UdW3RT57bt3eFbI-2" value="" style="rounded=0;whiteSpace=wrap;html=1;fillColor=#0D1017;strokeColor=none;container=0;" parent="1" vertex="1">
          <mxGeometry y="-40" width="800" height="520" as="geometry" />
        </mxCell>
        <mxCell id="Kd0nCuUnbv8K1Pzj6QSY-2" value="World" parent="0" />
        <mxCell id="Kd0nCuUnbv8K1Pzj6QSY-13" value="" style="group;rotation=-15;" parent="Kd0nCuUnbv8K1Pzj6QSY-2" vertex="1" connectable="0">
          <mxGeometry x="110" y="30" width="600" height="350" as="geometry" />
        </mxCell>
        <mxCell id="Kd0nCuUnbv8K1Pzj6QSY-4" value="" style="group;rotation=-15;" parent="Kd0nCuUnbv8K1Pzj6QSY-13" vertex="1" connectable="0">
          <mxGeometry x="4" y="29" width="600" height="320" as="geometry" />
        </mxCell>
        <mxCell id="Kd0nCuUnbv8K1Pzj6QSY-5" value="" style="rounded=0;whiteSpace=wrap;html=1;fillColor=none;strokeColor=#CC0000;container=0;rotation=-15;" parent="Kd0nCuUnbv8K1Pzj6QSY-4" vertex="1">
          <mxGeometry width="600" height="320" as="geometry" />
        </mxCell>
        <mxCell id="Kd0nCuUnbv8K1Pzj6QSY-6" value="" style="shape=mxgraph.sysml.x;container=0;rotation=-15;" parent="Kd0nCuUnbv8K1Pzj6QSY-4" vertex="1">
          <mxGeometry x="455" y="164" width="10" height="10" as="geometry" />
        </mxCell>
        <mxCell id="Kd0nCuUnbv8K1Pzj6QSY-7" value="Target&lt;div&gt;(x, y)&lt;/div&gt;" style="text;html=1;align=center;verticalAlign=middle;whiteSpace=wrap;rounded=0;fontFamily=JetBrainsMono Nerd Font;rotation=-15;" parent="Kd0nCuUnbv8K1Pzj6QSY-4" vertex="1">
          <mxGeometry x="425" y="173" width="82" height="40" as="geometry" />
        </mxCell>
        <mxCell id="Kd0nCuUnbv8K1Pzj6QSY-14" value="" style="group" parent="Kd0nCuUnbv8K1Pzj6QSY-4" vertex="1" connectable="0">
          <mxGeometry x="186" y="21" width="330" height="240" as="geometry" />
        </mxCell>
        <mxCell id="Kd0nCuUnbv8K1Pzj6QSY-11" value="" style="rounded=0;whiteSpace=wrap;html=1;fillColor=none;strokeColor=#FFF2CC;container=0;" parent="Kd0nCuUnbv8K1Pzj6QSY-14" vertex="1">
          <mxGeometry y="30" width="330" height="210" as="geometry" />
        </mxCell>
        <mxCell id="Kd0nCuUnbv8K1Pzj6QSY-12" value="Camera Origin" style="text;html=1;align=center;verticalAlign=middle;whiteSpace=wrap;rounded=0;fontFamily=JetBrainsMono Nerd Font;container=0;" parent="Kd0nCuUnbv8K1Pzj6QSY-14" vertex="1">
          <mxGeometry width="100" height="30" as="geometry" />
        </mxCell>
        <mxCell id="Kd0nCuUnbv8K1Pzj6QSY-8" value="World Origin" style="text;html=1;align=center;verticalAlign=middle;whiteSpace=wrap;rounded=0;fontFamily=JetBrainsMono Nerd Font;container=0;rotation=-15;" parent="Kd0nCuUnbv8K1Pzj6QSY-13" vertex="1">
          <mxGeometry x="-33" y="71" width="90" height="30" as="geometry" />
        </mxCell>
        <mxCell id="Kd0nCuUnbv8K1Pzj6QSY-3" value="Camrea" parent="0" />
      </root>
    </mxGraphModel>
  </diagram>
</mxfile>
